<svg xmlns="http://www.w3.org/2000/svg" viewBox="0 0 320 72" role="img" aria-label="Crivelo">
  
  
  <g transform="translate(4 8) scale(0.875)" fill="#1F1410">
    <circle cx="8" cy="8" r="4"></circle><circle cx="20" cy="8" r="4"></circle><circle cx="32" cy="8" r="4"></circle><circle cx="44" cy="8" r="4"></circle><circle cx="56" cy="8" r="2" fill-opacity="0.16"></circle>
    <circle cx="8" cy="20" r="4"></circle><circle cx="20" cy="20" r="2" fill-opacity="0.16"></circle><circle cx="32" cy="20" r="2" fill-opacity="0.16"></circle><circle cx="44" cy="20" r="2" fill-opacity="0.16"></circle><circle cx="56" cy="20" r="2" fill-opacity="0.16"></circle>
    <circle cx="8" cy="32" r="4"></circle><circle cx="20" cy="32" r="2" fill-opacity="0.16"></circle><circle cx="32" cy="32" r="2" fill-opacity="0.16"></circle><circle cx="44" cy="32" r="2" fill-opacity="0.16"></circle><circle cx="56" cy="32" r="2" fill-opacity="0.16"></circle>
    <circle cx="8" cy="44" r="4"></circle><circle cx="20" cy="44" r="2" fill-opacity="0.16"></circle><circle cx="32" cy="44" r="2" fill-opacity="0.16"></circle><circle cx="44" cy="44" r="2" fill-opacity="0.16"></circle><circle cx="56" cy="44" r="2" fill-opacity="0.16"></circle>
    <circle cx="8" cy="56" r="4"></circle><circle cx="20" cy="56" r="4"></circle><circle cx="32" cy="56" r="4"></circle><circle cx="44" cy="56" r="4"></circle><circle cx="56" cy="56" r="2" fill-opacity="0.16"></circle>
  </g>
  <text x="74" y="50" class="word">Crivelo</text>
</svg>